<svg xmlns="http://www.w3.org/2000/svg" width="109.718" height="92.101" viewBox="0 0 109.718 92.101">
    <defs>
        <style>
            .cls-1{fill:#ffab4a;stroke:#ffab4a;stroke-width:2px}
        </style>
    </defs>
    <g id="Group_310" transform="rotate(64.02 504.83 83.72)">
        <circle id="Ellipse_25" cx="1.657" cy="1.657" r="1.657" class="cls-1" transform="translate(246.528 514.838)"/>
        <path id="Path_1233" d="M248.185 502.083a1.658 1.658 0 1 1-1.657 1.658 1.658 1.658 0 0 1 1.657-1.658z" class="cls-1"/>
        <circle id="Ellipse_26" cx="1.657" cy="1.657" r="1.657" class="cls-1" transform="translate(246.528 489.329)"/>
        <path id="Path_1234" d="M248.185 476.574a1.658 1.658 0 1 1-1.657 1.658 1.658 1.658 0 0 1 1.657-1.658z" class="cls-1"/>
        <circle id="Ellipse_27" cx="1.657" cy="1.657" r="1.657" class="cls-1" transform="translate(246.528 463.819)"/>
        <circle id="Ellipse_28" cx="1.657" cy="1.657" r="1.657" class="cls-1" transform="translate(246.528 451.065)"/>
        <path id="Path_1235" d="M248.185 438.31a1.658 1.658 0 1 1-1.657 1.658 1.658 1.658 0 0 1 1.657-1.658z" class="cls-1"/>
        <circle id="Ellipse_29" cx="1.657" cy="1.657" r="1.657" class="cls-1" transform="translate(246.528 425.556)"/>
        <path id="Path_1236" d="M260.94 514.838a1.658 1.658 0 1 1-1.657 1.657 1.657 1.657 0 0 1 1.657-1.657z" class="cls-1"/>
        <path id="Path_1237" d="M260.94 502.083a1.658 1.658 0 1 1-1.657 1.658 1.657 1.657 0 0 1 1.657-1.658z" class="cls-1"/>
        <path id="Path_1238" d="M260.94 489.329a1.658 1.658 0 1 1-1.657 1.657 1.657 1.657 0 0 1 1.657-1.657z" class="cls-1"/>
        <path id="Path_1239" d="M260.94 476.574a1.658 1.658 0 1 1-1.657 1.658 1.657 1.657 0 0 1 1.657-1.658z" class="cls-1"/>
        <path id="Path_1240" d="M260.94 463.819a1.658 1.658 0 1 1-1.657 1.658 1.658 1.658 0 0 1 1.657-1.658z" class="cls-1"/>
        <path id="Path_1241" d="M260.94 451.065a1.658 1.658 0 1 1-1.657 1.657 1.657 1.657 0 0 1 1.657-1.657z" class="cls-1"/>
        <path id="Path_1242" d="M260.94 438.31a1.658 1.658 0 1 1-1.657 1.658 1.657 1.657 0 0 1 1.657-1.658z" class="cls-1"/>
        <path id="Path_1243" d="M260.94 425.556a1.657 1.657 0 1 1-1.657 1.657 1.657 1.657 0 0 1 1.657-1.657z" class="cls-1"/>
        <circle id="Ellipse_30" cx="1.657" cy="1.657" r="1.657" class="cls-1" transform="translate(272.037 514.838)"/>
        <path id="Path_1244" d="M273.7 502.083a1.658 1.658 0 1 1-1.658 1.658 1.657 1.657 0 0 1 1.658-1.658z" class="cls-1"/>
        <circle id="Ellipse_31" cx="1.657" cy="1.657" r="1.657" class="cls-1" transform="translate(272.037 489.329)"/>
        <path id="Path_1245" d="M273.7 476.574a1.658 1.658 0 1 1-1.658 1.658 1.657 1.657 0 0 1 1.658-1.658z" class="cls-1"/>
        <circle id="Ellipse_32" cx="1.657" cy="1.657" r="1.657" class="cls-1" transform="translate(272.037 463.819)"/>
        <circle id="Ellipse_33" cx="1.657" cy="1.657" r="1.657" class="cls-1" transform="translate(272.037 451.065)"/>
        <path id="Path_1246" d="M273.7 438.31a1.658 1.658 0 1 1-1.658 1.658 1.657 1.657 0 0 1 1.658-1.658z" class="cls-1"/>
        <circle id="Ellipse_34" cx="1.657" cy="1.657" r="1.657" class="cls-1" transform="translate(272.037 425.556)"/>
        <path id="Path_1247" d="M286.449 514.838a1.658 1.658 0 1 1-1.657 1.657 1.657 1.657 0 0 1 1.657-1.657z" class="cls-1"/>
        <path id="Path_1248" d="M286.449 502.083a1.658 1.658 0 1 1-1.657 1.658 1.658 1.658 0 0 1 1.657-1.658z" class="cls-1"/>
        <path id="Path_1249" d="M286.449 489.329a1.658 1.658 0 1 1-1.657 1.657 1.657 1.657 0 0 1 1.657-1.657z" class="cls-1"/>
        <path id="Path_1250" d="M286.449 476.574a1.658 1.658 0 1 1-1.657 1.658 1.658 1.658 0 0 1 1.657-1.658z" class="cls-1"/>
        <path id="Path_1251" d="M286.449 463.819a1.658 1.658 0 1 1-1.657 1.658 1.658 1.658 0 0 1 1.657-1.658z" class="cls-1"/>
        <path id="Path_1252" d="M286.449 451.065a1.658 1.658 0 1 1-1.657 1.657 1.657 1.657 0 0 1 1.657-1.657z" class="cls-1"/>
        <path id="Path_1253" d="M286.449 438.31a1.658 1.658 0 1 1-1.657 1.658 1.658 1.658 0 0 1 1.657-1.658z" class="cls-1"/>
        <path id="Path_1254" d="M286.449 425.556a1.657 1.657 0 1 1-1.657 1.657 1.657 1.657 0 0 1 1.657-1.657z" class="cls-1"/>
        <circle id="Ellipse_35" cx="1.657" cy="1.657" r="1.657" class="cls-1" transform="translate(297.547 514.838)"/>
        <path id="Path_1255" d="M299.2 502.083a1.658 1.658 0 1 1-1.657 1.658 1.657 1.657 0 0 1 1.657-1.658z" class="cls-1"/>
        <circle id="Ellipse_36" cx="1.657" cy="1.657" r="1.657" class="cls-1" transform="translate(297.547 489.329)"/>
        <path id="Path_1256" d="M299.2 476.574a1.658 1.658 0 1 1-1.657 1.658 1.657 1.657 0 0 1 1.657-1.658z" class="cls-1"/>
        <circle id="Ellipse_37" cx="1.657" cy="1.657" r="1.657" class="cls-1" transform="translate(297.547 463.819)"/>
        <circle id="Ellipse_38" cx="1.657" cy="1.657" r="1.657" class="cls-1" transform="translate(297.547 451.065)"/>
        <path id="Path_1257" d="M299.2 438.31a1.658 1.658 0 1 1-1.657 1.658 1.657 1.657 0 0 1 1.657-1.658z" class="cls-1"/>
        <circle id="Ellipse_39" cx="1.657" cy="1.657" r="1.657" class="cls-1" transform="translate(297.547 425.556)"/>
    </g>
</svg>
