<svg xmlns="http://www.w3.org/2000/svg" width="42.886" height="124.609" viewBox="0 0 42.886 124.609">
    <defs>
        <clipPath id="clip-path">
            <path fill="none" d="M0 0H42.886V124.609H0z"/>
        </clipPath>
        <style>
            .cls-3{fill:none;stroke:#ffab4a;stroke-miterlimit:10;stroke-width:1.215px}
        </style>
    </defs>
    <g id="Repeat_Grid_2" clip-path="url(#clip-path)">
        <g id="Group_164" transform="translate(-706.521 -364.485)">
            <g id="Group_140">
                <path id="Line_43" d="M3.443 0L0 3.443" class="cls-3" transform="translate(745.534 364.915)"/>
                <path id="Line_44" d="M3.443 3.443L0 0" class="cls-3" transform="translate(745.534 364.915)"/>
            </g>
            <g id="Group_141">
                <path id="Line_45" d="M3.443 0L0 3.443" class="cls-3" transform="translate(745.534 377.776)"/>
                <path id="Line_46" d="M3.443 3.443L0 0" class="cls-3" transform="translate(745.534 377.776)"/>
            </g>
            <g id="Group_142">
                <path id="Line_47" d="M3.443 0L0 3.443" class="cls-3" transform="translate(745.534 390.638)"/>
                <path id="Line_48" d="M3.443 3.443L0 0" class="cls-3" transform="translate(745.534 390.638)"/>
            </g>
            <g id="Group_143">
                <path id="Line_49" d="M3.443 0L0 3.443" class="cls-3" transform="translate(745.534 403.499)"/>
                <path id="Line_50" d="M3.443 3.443L0 0" class="cls-3" transform="translate(745.534 403.499)"/>
            </g>
            <g id="Group_144">
                <path id="Line_51" d="M3.443 0L0 3.443" class="cls-3" transform="translate(745.534 416.361)"/>
                <path id="Line_52" d="M3.443 3.443L0 0" class="cls-3" transform="translate(745.534 416.361)"/>
            </g>
            <g id="Group_145">
                <path id="Line_53" d="M3.443 0L0 3.443" class="cls-3" transform="translate(745.534 429.222)"/>
                <path id="Line_54" d="M3.443 3.443L0 0" class="cls-3" transform="translate(745.534 429.222)"/>
            </g>
            <g id="Group_146">
                <path id="Line_55" d="M3.443 0L0 3.443" class="cls-3" transform="translate(732.673 364.915)"/>
                <path id="Line_56" d="M3.443 3.443L0 0" class="cls-3" transform="translate(732.673 364.915)"/>
            </g>
            <g id="Group_147">
                <path id="Line_57" d="M3.443 0L0 3.443" class="cls-3" transform="translate(732.673 377.776)"/>
                <path id="Line_58" d="M3.443 3.443L0 0" class="cls-3" transform="translate(732.673 377.776)"/>
            </g>
            <g id="Group_148">
                <path id="Line_59" d="M3.443 0L0 3.443" class="cls-3" transform="translate(732.673 390.638)"/>
                <path id="Line_60" d="M3.443 3.443L0 0" class="cls-3" transform="translate(732.673 390.638)"/>
            </g>
            <g id="Group_149">
                <path id="Line_61" d="M3.443 0L0 3.443" class="cls-3" transform="translate(732.673 403.499)"/>
                <path id="Line_62" d="M3.443 3.443L0 0" class="cls-3" transform="translate(732.673 403.499)"/>
            </g>
            <g id="Group_150">
                <path id="Line_63" d="M3.443 0L0 3.443" class="cls-3" transform="translate(732.673 416.361)"/>
                <path id="Line_64" d="M3.443 3.443L0 0" class="cls-3" transform="translate(732.673 416.361)"/>
            </g>
            <g id="Group_151">
                <path id="Line_65" d="M3.443 0L0 3.443" class="cls-3" transform="translate(732.673 429.222)"/>
                <path id="Line_66" d="M3.443 3.443L0 0" class="cls-3" transform="translate(732.673 429.222)"/>
            </g>
            <g id="Group_152">
                <path id="Line_67" d="M3.443 0L0 3.443" class="cls-3" transform="translate(719.811 364.915)"/>
                <path id="Line_68" d="M3.443 3.443L0 0" class="cls-3" transform="translate(719.811 364.915)"/>
            </g>
            <g id="Group_153">
                <path id="Line_69" d="M3.443 0L0 3.443" class="cls-3" transform="translate(719.811 377.776)"/>
                <path id="Line_70" d="M3.443 3.443L0 0" class="cls-3" transform="translate(719.811 377.776)"/>
            </g>
            <g id="Group_154">
                <path id="Line_71" d="M3.443 0L0 3.443" class="cls-3" transform="translate(719.811 390.638)"/>
                <path id="Line_72" d="M3.443 3.443L0 0" class="cls-3" transform="translate(719.811 390.638)"/>
            </g>
            <g id="Group_155">
                <path id="Line_73" d="M3.443 0L0 3.443" class="cls-3" transform="translate(719.811 403.499)"/>
                <path id="Line_74" d="M3.443 3.443L0 0" class="cls-3" transform="translate(719.811 403.499)"/>
            </g>
            <g id="Group_156">
                <path id="Line_75" d="M3.443 0L0 3.443" class="cls-3" transform="translate(719.811 416.361)"/>
                <path id="Line_76" d="M3.443 3.443L0 0" class="cls-3" transform="translate(719.811 416.361)"/>
            </g>
            <g id="Group_157">
                <path id="Line_77" d="M3.443 0L0 3.443" class="cls-3" transform="translate(719.811 429.222)"/>
                <path id="Line_78" d="M3.443 3.443L0 0" class="cls-3" transform="translate(719.811 429.222)"/>
            </g>
            <g id="Group_158">
                <path id="Line_79" d="M3.443 0L0 3.443" class="cls-3" transform="translate(706.95 364.915)"/>
                <path id="Line_80" d="M3.443 3.443L0 0" class="cls-3" transform="translate(706.95 364.915)"/>
            </g>
            <g id="Group_159">
                <path id="Line_81" d="M3.443 0L0 3.443" class="cls-3" transform="translate(706.95 377.776)"/>
                <path id="Line_82" d="M3.443 3.443L0 0" class="cls-3" transform="translate(706.95 377.776)"/>
            </g>
            <g id="Group_160">
                <path id="Line_83" d="M3.443 0L0 3.443" class="cls-3" transform="translate(706.95 390.638)"/>
                <path id="Line_84" d="M3.443 3.443L0 0" class="cls-3" transform="translate(706.95 390.638)"/>
            </g>
            <g id="Group_161">
                <path id="Line_85" d="M3.443 0L0 3.443" class="cls-3" transform="translate(706.95 403.499)"/>
                <path id="Line_86" d="M3.443 3.443L0 0" class="cls-3" transform="translate(706.95 403.499)"/>
            </g>
            <g id="Group_162">
                <path id="Line_87" d="M3.443 0L0 3.443" class="cls-3" transform="translate(706.95 416.361)"/>
                <path id="Line_88" d="M3.443 3.443L0 0" class="cls-3" transform="translate(706.95 416.361)"/>
            </g>
            <g id="Group_163">
                <path id="Line_89" d="M3.443 0L0 3.443" class="cls-3" transform="translate(706.95 429.222)"/>
                <path id="Line_90" d="M3.443 3.443L0 0" class="cls-3" transform="translate(706.95 429.222)"/>
            </g>
        </g>
        <g id="Group_164-2" transform="translate(-706.521 -286.485)">
            <g id="Group_140-2">
                <path id="Line_43-2" d="M3.443 0L0 3.443" class="cls-3" transform="translate(745.534 364.915)"/>
                <path id="Line_44-2" d="M3.443 3.443L0 0" class="cls-3" transform="translate(745.534 364.915)"/>
            </g>
            <g id="Group_141-2">
                <path id="Line_45-2" d="M3.443 0L0 3.443" class="cls-3" transform="translate(745.534 377.776)"/>
                <path id="Line_46-2" d="M3.443 3.443L0 0" class="cls-3" transform="translate(745.534 377.776)"/>
            </g>
            <g id="Group_142-2">
                <path id="Line_47-2" d="M3.443 0L0 3.443" class="cls-3" transform="translate(745.534 390.638)"/>
                <path id="Line_48-2" d="M3.443 3.443L0 0" class="cls-3" transform="translate(745.534 390.638)"/>
            </g>
            <g id="Group_143-2">
                <path id="Line_49-2" d="M3.443 0L0 3.443" class="cls-3" transform="translate(745.534 403.499)"/>
                <path id="Line_50-2" d="M3.443 3.443L0 0" class="cls-3" transform="translate(745.534 403.499)"/>
            </g>
            <g id="Group_144-2">
                <path id="Line_51-2" d="M3.443 0L0 3.443" class="cls-3" transform="translate(745.534 416.361)"/>
                <path id="Line_52-2" d="M3.443 3.443L0 0" class="cls-3" transform="translate(745.534 416.361)"/>
            </g>
            <g id="Group_145-2">
                <path id="Line_53-2" d="M3.443 0L0 3.443" class="cls-3" transform="translate(745.534 429.222)"/>
                <path id="Line_54-2" d="M3.443 3.443L0 0" class="cls-3" transform="translate(745.534 429.222)"/>
            </g>
            <g id="Group_146-2">
                <path id="Line_55-2" d="M3.443 0L0 3.443" class="cls-3" transform="translate(732.673 364.915)"/>
                <path id="Line_56-2" d="M3.443 3.443L0 0" class="cls-3" transform="translate(732.673 364.915)"/>
            </g>
            <g id="Group_147-2">
                <path id="Line_57-2" d="M3.443 0L0 3.443" class="cls-3" transform="translate(732.673 377.776)"/>
                <path id="Line_58-2" d="M3.443 3.443L0 0" class="cls-3" transform="translate(732.673 377.776)"/>
            </g>
            <g id="Group_148-2">
                <path id="Line_59-2" d="M3.443 0L0 3.443" class="cls-3" transform="translate(732.673 390.638)"/>
                <path id="Line_60-2" d="M3.443 3.443L0 0" class="cls-3" transform="translate(732.673 390.638)"/>
            </g>
            <g id="Group_149-2">
                <path id="Line_61-2" d="M3.443 0L0 3.443" class="cls-3" transform="translate(732.673 403.499)"/>
                <path id="Line_62-2" d="M3.443 3.443L0 0" class="cls-3" transform="translate(732.673 403.499)"/>
            </g>
            <g id="Group_150-2">
                <path id="Line_63-2" d="M3.443 0L0 3.443" class="cls-3" transform="translate(732.673 416.361)"/>
                <path id="Line_64-2" d="M3.443 3.443L0 0" class="cls-3" transform="translate(732.673 416.361)"/>
            </g>
            <g id="Group_151-2">
                <path id="Line_65-2" d="M3.443 0L0 3.443" class="cls-3" transform="translate(732.673 429.222)"/>
                <path id="Line_66-2" d="M3.443 3.443L0 0" class="cls-3" transform="translate(732.673 429.222)"/>
            </g>
            <g id="Group_152-2">
                <path id="Line_67-2" d="M3.443 0L0 3.443" class="cls-3" transform="translate(719.811 364.915)"/>
                <path id="Line_68-2" d="M3.443 3.443L0 0" class="cls-3" transform="translate(719.811 364.915)"/>
            </g>
            <g id="Group_153-2">
                <path id="Line_69-2" d="M3.443 0L0 3.443" class="cls-3" transform="translate(719.811 377.776)"/>
                <path id="Line_70-2" d="M3.443 3.443L0 0" class="cls-3" transform="translate(719.811 377.776)"/>
            </g>
            <g id="Group_154-2">
                <path id="Line_71-2" d="M3.443 0L0 3.443" class="cls-3" transform="translate(719.811 390.638)"/>
                <path id="Line_72-2" d="M3.443 3.443L0 0" class="cls-3" transform="translate(719.811 390.638)"/>
            </g>
            <g id="Group_155-2">
                <path id="Line_73-2" d="M3.443 0L0 3.443" class="cls-3" transform="translate(719.811 403.499)"/>
                <path id="Line_74-2" d="M3.443 3.443L0 0" class="cls-3" transform="translate(719.811 403.499)"/>
            </g>
            <g id="Group_156-2">
                <path id="Line_75-2" d="M3.443 0L0 3.443" class="cls-3" transform="translate(719.811 416.361)"/>
                <path id="Line_76-2" d="M3.443 3.443L0 0" class="cls-3" transform="translate(719.811 416.361)"/>
            </g>
            <g id="Group_157-2">
                <path id="Line_77-2" d="M3.443 0L0 3.443" class="cls-3" transform="translate(719.811 429.222)"/>
                <path id="Line_78-2" d="M3.443 3.443L0 0" class="cls-3" transform="translate(719.811 429.222)"/>
            </g>
            <g id="Group_158-2">
                <path id="Line_79-2" d="M3.443 0L0 3.443" class="cls-3" transform="translate(706.95 364.915)"/>
                <path id="Line_80-2" d="M3.443 3.443L0 0" class="cls-3" transform="translate(706.95 364.915)"/>
            </g>
            <g id="Group_159-2">
                <path id="Line_81-2" d="M3.443 0L0 3.443" class="cls-3" transform="translate(706.95 377.776)"/>
                <path id="Line_82-2" d="M3.443 3.443L0 0" class="cls-3" transform="translate(706.95 377.776)"/>
            </g>
            <g id="Group_160-2">
                <path id="Line_83-2" d="M3.443 0L0 3.443" class="cls-3" transform="translate(706.95 390.638)"/>
                <path id="Line_84-2" d="M3.443 3.443L0 0" class="cls-3" transform="translate(706.95 390.638)"/>
            </g>
            <g id="Group_161-2">
                <path id="Line_85-2" d="M3.443 0L0 3.443" class="cls-3" transform="translate(706.95 403.499)"/>
                <path id="Line_86-2" d="M3.443 3.443L0 0" class="cls-3" transform="translate(706.95 403.499)"/>
            </g>
            <g id="Group_162-2">
                <path id="Line_87-2" d="M3.443 0L0 3.443" class="cls-3" transform="translate(706.95 416.361)"/>
                <path id="Line_88-2" d="M3.443 3.443L0 0" class="cls-3" transform="translate(706.95 416.361)"/>
            </g>
            <g id="Group_163-2">
                <path id="Line_89-2" d="M3.443 0L0 3.443" class="cls-3" transform="translate(706.95 429.222)"/>
                <path id="Line_90-2" d="M3.443 3.443L0 0" class="cls-3" transform="translate(706.95 429.222)"/>
            </g>
        </g>
    </g>
</svg>
